<?xml version="1.0" encoding="UTF-8"?><svg id="a" xmlns="http://www.w3.org/2000/svg" viewBox="0 0 150 150"><defs><style>.b{fill:#8953e0;}.c{fill:none;}</style></defs><path class="c" d="M0,0H150V150H0V0Z"/><path class="b" d="M94.97,59.65v31.03c0,2.24-1.82,4.06-4.06,4.06h-25.22v13.66h32.69c5.66,0,10.24-4.59,10.24-10.24V53c0-5.82-4.72-10.54-10.54-10.54H52.72c-5.82,0-10.54,4.72-10.54,10.54V123.89h-14.71v-15.23h9.46v-13.66l-15.77-.26c-4.05,0-7.34,3.29-7.34,7.34v28.35c0,3.93,3.19,7.12,7.12,7.12h28.54c3.51,0,6.36-2.85,6.36-6.36V59.65c0-2.24,1.82-4.06,4.06-4.06h31.03c2.24,0,4.06,1.82,4.06,4.06Z"/><path class="b" d="M119.23,13.57H32.37c-10.25,0-18.56,8.31-18.56,18.56v52.01h13.66V36.33c0-5.03,4.08-9.1,9.1-9.1H115.03c5.03,0,9.1,4.08,9.1,9.1V114.79c0,5.03-4.08,9.1-9.1,9.1h-49.32v13.66h53.53c10.25,0,18.56-8.31,18.56-18.56V32.13c0-10.25-8.31-18.56-18.56-18.56Z"/></svg>